#!OML:ASF H:\ManfredObstacles\Project 1\Capture day 2\Session 1\male.ASF
:FULLY-SPECIFIED
:DEGREES
399
root 2.14689 16.5675 -19.5789 -161.56 1.346 178.139
lowerback -1.21018 -6.24839 -5.19735
upperback 0.129896 -8.24644 0.624961
thorax 1.62946 -4.15991 3.24619
lowerneck -33.1596 4.7322 6.26118
upperneck 30.7382 5.03907 -2.46444
head 16.944 2.57143 -0.905309
rclavicle -6.44062e-014 7.95139e-016
rhumerus -74.4879 9.4006 -75.7115
rradius 68.1434
rwrist 5.62204
rhand -4.58321 -10.2151
rfingers 7.12502
rthumb 21.1938 -39.0765
lclavicle -6.44062e-014 7.95139e-016
lhumerus -30.169 -35.7986 82.7867
lradius 98.973
lwrist -22.9775
lhand -17.5065 13.0983
lfingers 7.12502
lthumb 8.7466 42.897
rfemur -44.7151 3.64404 22.3969
rtibia 41.9669
rfoot -0.563277 -12.7653
rtoes -26.1983
lfemur 0.838159 -4.19908 -23.4225
ltibia 19.048
lfoot 31.747 -4.66913
ltoes -10.7481
400
root 2.1582 16.5581 -19.8451 -161.686 1.36844 178.244
lowerback -1.6028 -6.32345 -4.93343
upperback 0.118972 -8.33206 0.662978
thorax 1.81327 -4.20479 3.09205
lowerneck -33.2033 4.84704 6.37058
upperneck 30.836 5.2155 -2.61248
head 17.0228 2.6336 -0.945997
rclavicle -1.88845e-013 1.98785e-014
rhumerus -74.8535 9.55277 -75.5796
rradius 69.0103
rwrist 5.13613
rhand -4.82051 -10.0643
rfingers 7.12502
rthumb 20.9659 -38.9512
lclavicle -1.88845e-013 1.98785e-014
lhumerus -31.5487 -35.9984 82.8758
lradius 99.6692
lwrist -22.8303
lhand -17.4685 12.9171
lfingers 7.12502
lthumb 8.78322 42.7143
rfemur -43.8862 3.74918 22.6429
rtibia 40.5709
rfoot -0.140613 -11.7786
rtoes -26.5594
lfemur 1.17047 -3.97122 -23.2792
ltibia 19.8871
lfoot 33.377 -4.81528
ltoes -7.86215
401
root 2.17121 16.5384 -20.1092 -161.879 1.42176 178.244
lowerback -1.92004 -6.37735 -4.79918
upperback 0.120129 -8.39019 0.660426
thorax 1.97696 -4.23551 2.97556
lowerneck -33.2575 4.92823 6.43157
upperneck 30.989 5.36253 -2.72619
head 17.1278 2.68521 -0.969791
rclavicle -2.01369e-013 -1.11319e-014
rhumerus -75.1067 9.66895 -75.5438
rradius 69.8347
rwrist 4.75509
rhand -5.11442 -9.9266
rfingers 7.12502
rthumb 20.6835 -38.8444
lclavicle -2.01369e-013 -1.11319e-014
lhumerus -32.9682 -36.1443 83.0462
lradius 100.324
lwrist -22.7361
lhand -17.3802 12.6457
lfingers 7.12502
lthumb 8.86843 42.4394
rfemur -43.0258 3.8034 22.8099
rtibia 39.6063
rfoot 0.456044 -11.0276
rtoes -26.6686
lfemur 1.40064 -3.75973 -23.2458
ltibia 21.0582
lfoot 34.7352 -4.95652
ltoes -4.94978
402
root 2.18603 16.5079 -20.3706 -162.138 1.51055 178.147
lowerback -2.17538 -6.40118 -4.78867
upperback 0.145836 -8.40659 0.618902
thorax 2.13957 -4.24603 2.89392
lowerneck -33.3 4.97928 6.4663
upperneck 31.1287 5.48086 -2.84205
head 17.2218 2.72175 -0.997473
rclavicle 6.42074e-014 0
rhumerus -75.2268 9.72178 -75.597
rradius 70.6202
rwrist 4.47635
rhand -5.47604 -9.80131
rfingers 7.12502
rthumb 20.336 -38.7566
lclavicle 6.42074e-014 0
lhumerus -34.3926 -36.226 83.298
lradius 100.925
lwrist -22.6916
lhand -17.2691 12.2778
lfingers 7.12502
lthumb 8.97572 42.0668
rfemur -42.1538 3.84431 22.8811
rtibia 39.0755
rfoot 1.16122 -10.5916
rtoes -25.8014
lfemur 1.52754 -3.59031 -23.3218
ltibia 22.5465
lfoot 35.8216 -5.12046
ltoes -2.13964
403
root 2.20187 16.4672 -20.6291 -162.47 1.61886 177.969
lowerback -2.32895 -6.40134 -4.87749
upperback 0.183853 -8.39193 0.544607
thorax 2.26484 -4.24099 2.84572
lowerneck -33.339 5.01327 6.49158
upperneck 31.2697 5.5842 -2.96623
head 17.3154 2.75009 -1.03113
rclavicle -6.20208e-014 1.51076e-014
rhumerus -75.2239 9.72437 -75.7503
rradius 71.3647
rwrist 4.27744
rhand -5.90957 -9.70143
rfingers 7.12502
rthumb 19.9193 -38.7006
lclavicle -6.20208e-014 1.51076e-014
lhumerus -35.8412 -36.2141 83.6364
lradius 101.47
lwrist -22.7016
lhand -17.1353 11.8111
lfingers 7.12502
lthumb 9.10483 41.5946
rfemur -41.2526 3.85051 22.88
rtibia 38.9625
rfoot 1.83092 -10.463
rtoes -24.7073
lfemur 1.55272 -3.46873 -23.4911
ltibia 24.3481
lfoot 36.6787 -5.27891
ltoes 0.425648
404
root 2.21799 16.4158 -20.8839 -162.855 1.73648 177.732
lowerback -2.39776 -6.37848 -5.03679
upperback 0.231848 -8.34725 0.449734
thorax 2.35757 -4.22103 2.82608
lowerneck -33.3801 5.03329 6.51054
upperneck 31.3887 5.6754 -3.10958
head 17.3987 2.76906 -1.07574
rclavicle -1.39348e-013 -1.19271e-014
rhumerus -75.088 9.68213 -75.9919
rradius 72.084
rwrist 4.14354
rhand -6.39347 -9.6209
rfingers 7.12502
rthumb 19.4541 -38.6677
lclavicle -1.39348e-013 -1.19271e-014
lhumerus -37.3018 -36.0965 84.0607
lradius 101.955
lwrist -22.7383
lhand -17.015 11.2737
lfingers 7.12502
lthumb 9.22091 41.0521
rfemur -40.3203 3.80957 22.83
rtibia 39.2276
rfoot 2.27325 -10.6333
rtoes -23.654
lfemur 1.44775 -3.35732 -23.7243
ltibia 26.4666
lfoot 37.279 -5.46446
ltoes 2.32037
